<?xml version="1.0" encoding="UTF-8" standalone="no"?>
<!-- Created with Inkscape (http://www.inkscape.org/) -->

<svg
   width="159.1987mm"
   height="159.2301mm"
   viewBox="0 0 159.19871 159.2301"
   version="1.1"
   id="svg5"
   inkscape:version="1.1.2 (b8e25be8, 2022-02-05)"
   sodipodi:docname="Fotum-favicon.svg"
   xmlns:inkscape="http://www.inkscape.org/namespaces/inkscape"
   xmlns:sodipodi="http://sodipodi.sourceforge.net/DTD/sodipodi-0.dtd"
   xmlns:xlink="http://www.w3.org/1999/xlink"
   xmlns="http://www.w3.org/2000/svg"
   xmlns:svg="http://www.w3.org/2000/svg">
  <sodipodi:namedview
     id="namedview7"
     pagecolor="#ffffff"
     bordercolor="#8d8d8d"
     borderopacity="1"
     inkscape:pageshadow="0"
     inkscape:pageopacity="0"
     inkscape:pagecheckerboard="0"
     inkscape:document-units="mm"
     showgrid="true"
     inkscape:snap-bbox="false"
     inkscape:snap-global="true"
     inkscape:zoom="0.46541336"
     inkscape:cx="542.52848"
     inkscape:cy="432.94847"
     inkscape:window-width="1680"
     inkscape:window-height="929"
     inkscape:window-x="0"
     inkscape:window-y="23"
     inkscape:window-maximized="0"
     inkscape:current-layer="layer2"
     inkscape:snap-nodes="true">
    <inkscape:grid
       type="xygrid"
       id="grid3154"
       spacingx="2.6458333"
       spacingy="2.6458333"
       originx="-39.487501"
       originy="-198.19461" />
  </sodipodi:namedview>
  <defs
     id="defs2">
    <inkscape:path-effect
       effect="fillet_chamfer"
       id="path-effect22323"
       is_visible="true"
       lpeversion="1"
       satellites_param="F,0,0,1,0,13.229167,0,1 @ F,0,0,1,0,13.229167,0,1 @ F,0,0,1,0,13.229167,0,1 @ F,0,0,1,0,13.229167,0,1"
       unit="px"
       method="auto"
       mode="F"
       radius="50"
       chamfer_steps="1"
       flexible="false"
       use_knot_distance="true"
       apply_no_radius="true"
       apply_with_radius="true"
       only_selected="false"
       hide_knots="false" />
    <linearGradient
       inkscape:collect="always"
       id="linearGradient3578">
      <stop
         style="stop-color:#1cd0e1;stop-opacity:0.99823534"
         offset="0"
         id="stop3574" />
      <stop
         style="stop-color:#106b87;stop-opacity:0.97254902;"
         offset="0.69440311"
         id="stop9481" />
      <stop
         style="stop-color:#0b3f60;stop-opacity:1"
         offset="1"
         id="stop3576" />
    </linearGradient>
    <inkscape:path-effect
       effect="fillet_chamfer"
       id="path-effect10759"
       is_visible="true"
       lpeversion="1"
       satellites_param="F,0,0,1,0,3.96875,0,1 @ F,0,0,1,0,3.96875,0,1 @ F,0,0,1,0,3.96875,0,1 @ F,0,0,1,0,3.96875,0,1 @ F,0,0,1,0,3.96875,0,1 @ F,0,0,1,0,3.96875,0,1 @ F,0,0,1,0,3.96875,0,1 @ F,0,0,1,0,3.96875,0,1 @ F,0,0,1,0,3.96875,0,1 @ F,0,0,1,0,3.96875,0,1 @ F,0,0,1,0,3.96875,0,1 @ F,0,0,1,0,3.96875,0,1 @ F,0,0,1,0,3.96875,0,1 @ F,0,0,1,0,3.96875,0,1 @ F,0,0,1,0,3.96875,0,1 @ F,0,0,1,0,3.96875,0,1 @ F,0,0,1,0,3.96875,0,1 @ F,0,0,1,0,3.96875,0,1 @ F,0,0,1,0,3.96875,0,1 @ F,0,0,1,0,3.96875,0,1 @ F,0,0,1,0,3.96875,0,1 @ F,0,0,1,0,3.96875,0,1 @ F,0,0,1,0,3.96875,0,1 @ F,0,0,1,0,3.96875,0,1 @ F,0,0,1,0,3.96875,0,1 @ F,0,0,1,0,3.96875,0,1 @ F,0,0,1,0,3.96875,0,1 @ F,0,0,1,0,3.96875,0,1 @ F,0,0,1,0,3.96875,0,1 @ F,0,0,1,0,0,0,1 @ F,0,0,1,0,3.96875,0,1 @ F,0,0,1,0,3.96875,0,1 @ F,0,0,1,0,3.96875,0,1 @ F,0,0,1,0,3.96875,0,1 @ F,0,0,1,0,3.96875,0,1 @ F,0,0,1,0,3.96875,0,1 @ F,0,0,1,0,0,0,1 @ F,0,0,1,0,3.96875,0,1"
       unit="px"
       method="auto"
       mode="F"
       radius="15"
       chamfer_steps="1"
       flexible="false"
       use_knot_distance="true"
       apply_no_radius="true"
       apply_with_radius="true"
       only_selected="false"
       hide_knots="false" />
    <inkscape:path-effect
       effect="fillet_chamfer"
       id="path-effect10658"
       is_visible="true"
       lpeversion="1"
       satellites_param="F,0,0,1,0,3.96875,0,1 @ F,0,0,1,0,3.96875,0,1 @ F,0,0,1,0,0,0,1 @ F,0,0,1,0,3.96875,0,1 @ F,0,0,1,0,3.96875,0,1 @ F,0,0,1,0,3.96875,0,1 @ F,0,0,1,0,3.96875,0,1 @ F,0,0,1,0,3.96875,0,1 @ F,0,0,1,0,3.96875,0,1 @ F,0,0,1,0,3.96875,0,1 @ F,0,0,1,0,3.96875,0,1 @ F,0,0,1,0,3.96875,0,1 @ F,0,0,1,0,3.96875,0,1 @ F,0,0,1,0,3.96875,0,1 @ F,0,0,1,0,3.96875,0,1 @ F,0,0,1,0,3.96875,0,1 @ F,0,0,1,0,3.96875,0,1 @ F,0,0,1,0,3.96875,0,1 @ F,0,0,1,0,3.96875,0,1 @ F,0,0,1,0,3.96875,0,1 @ F,0,0,1,0,3.96875,0,1 @ F,0,0,1,0,3.96875,0,1 @ F,0,0,1,0,3.96875,0,1"
       unit="px"
       method="auto"
       mode="F"
       radius="15"
       chamfer_steps="1"
       flexible="false"
       use_knot_distance="true"
       apply_no_radius="true"
       apply_with_radius="true"
       only_selected="false"
       hide_knots="false" />
    <inkscape:path-effect
       effect="fillet_chamfer"
       id="path-effect10500"
       is_visible="true"
       lpeversion="1"
       satellites_param="F,0,0,1,0,3.96875,0,1 @ F,0,0,1,0,3.96875,0,1 @ F,0,0,1,0,0,0,1 @ F,0,0,1,0,3.96875,0,1 @ F,0,0,1,0,3.96875,0,1 @ F,0,0,1,0,0,0,1 @ F,0,0,1,0,3.96875,0,1 @ F,0,0,1,0,3.96875,0,1 @ F,0,0,1,0,0,0,1 @ F,0,0,1,0,3.96875,0,1 @ F,0,0,1,0,3.96875,0,1 @ F,0,0,1,0,3.96875,0,1 @ F,0,0,1,0,3.96875,0,1 @ F,0,0,1,0,3.96875,0,1 @ F,0,0,1,0,3.96875,0,1 @ F,0,0,1,0,3.96875,0,1 @ F,0,0,1,0,3.96875,0,1 @ F,0,0,1,0,3.96875,0,1 @ F,0,0,1,0,3.96875,0,1 @ F,0,0,1,0,3.96875,0,1 @ F,0,0,1,0,3.96875,0,1 @ F,0,0,1,0,0,0,1"
       unit="px"
       method="auto"
       mode="F"
       radius="15"
       chamfer_steps="1"
       flexible="false"
       use_knot_distance="true"
       apply_no_radius="true"
       apply_with_radius="true"
       only_selected="false"
       hide_knots="false" />
    <inkscape:path-effect
       effect="fillet_chamfer"
       id="path-effect10399"
       is_visible="true"
       lpeversion="1"
       satellites_param="F,0,0,1,0,0,0,1 @ F,0,0,1,0,3.96875,0,1 @ F,0,0,1,0,3.96875,0,1 @ F,0,0,1,0,0,0,1 @ F,0,0,1,0,3.96875,0,1 @ F,0,0,1,0,3.96875,0,1 @ F,0,0,1,0,3.96875,0,1 @ F,0,0,1,0,3.96875,0,1 @ F,0,0,1,0,3.96875,0,1 @ F,0,0,1,0,3.96875,0,1 @ F,0,0,1,0,3.96875,0,1 @ F,0,0,1,0,3.96875,0,1 @ F,0,0,1,0,3.96875,0,1 @ F,0,0,1,0,3.96875,0,1 @ F,0,0,1,0,3.96875,0,1 @ F,0,0,1,0,3.96875,0,1 @ F,0,0,1,0,3.96875,0,1 @ F,0,0,1,0,3.96875,0,1 @ F,0,0,1,0,0,0,1 @ F,0,0,1,0,3.96875,0,1 @ F,0,0,1,0,3.96875,0,1 @ F,0,0,1,0,0,0,1 @ F,0,0,1,0,3.96875,0,1 @ F,0,0,1,0,3.96875,0,1"
       unit="px"
       method="auto"
       mode="F"
       radius="15"
       chamfer_steps="1"
       flexible="false"
       use_knot_distance="true"
       apply_no_radius="true"
       apply_with_radius="true"
       only_selected="false"
       hide_knots="false" />
    <linearGradient
       inkscape:collect="always"
       id="linearGradient21616">
      <stop
         style="stop-color:#19aac3;stop-opacity:0.97254902"
         offset="0"
         id="stop21612" />
      <stop
         style="stop-color:#042a3d;stop-opacity:1"
         offset="1"
         id="stop21614" />
    </linearGradient>
    <linearGradient
       inkscape:collect="always"
       id="linearGradient15974">
      <stop
         style="stop-color:#1ccfe1;stop-opacity:0.97254902"
         offset="0"
         id="stop15970" />
      <stop
         style="stop-color:#105580;stop-opacity:0.97254908"
         offset="1"
         id="stop15972" />
    </linearGradient>
    <inkscape:path-effect
       effect="copy_rotate"
       starting_point="124.38493,79.38"
       origin="105.84,79.38"
       id="path-effect3609"
       is_visible="true"
       lpeversion="1"
       method="normal"
       num_copies="5"
       starting_angle="0"
       rotation_angle="72"
       gap="-0.01"
       copies_to_360="true"
       mirror_copies="false"
       split_items="false" />
    <inkscape:path-effect
       effect="copy_rotate"
       starting_point="122.46602,76.73"
       origin="101.73,76.73"
       id="path-effect3060"
       is_visible="true"
       lpeversion="1"
       method="normal"
       num_copies="5"
       starting_angle="0"
       rotation_angle="72"
       gap="0"
       copies_to_360="true"
       mirror_copies="false"
       split_items="false" />
    <inkscape:path-effect
       effect="copy_rotate"
       starting_point="102.95261,77.955467"
       origin="73.980844,77.955467"
       id="path-effect3058"
       is_visible="true"
       lpeversion="1"
       method="normal"
       num_copies="6"
       starting_angle="0"
       rotation_angle="60"
       gap="-0.01"
       copies_to_360="true"
       mirror_copies="false"
       split_items="false" />
    <inkscape:path-effect
       effect="skeletal"
       id="path-effect3056"
       is_visible="true"
       lpeversion="1"
       pattern="M 0,0 H 1"
       copytype="repeated_stretched"
       prop_scale="1"
       scale_y_rel="false"
       spacing="0"
       normal_offset="0"
       tang_offset="0"
       prop_units="false"
       vertical_pattern="false"
       hide_knot="false"
       fuse_tolerance="0" />
    <inkscape:path-effect
       effect="skeletal"
       id="path-effect3054"
       is_visible="true"
       lpeversion="1"
       pattern="M 0,0 H 1"
       copytype="repeated_stretched"
       prop_scale="1"
       scale_y_rel="false"
       spacing="0.5"
       normal_offset="0"
       tang_offset="0"
       prop_units="false"
       vertical_pattern="false"
       hide_knot="false"
       fuse_tolerance="0" />
    <radialGradient
       inkscape:collect="always"
       xlink:href="#linearGradient15974"
       id="radialGradient4955-3"
       cx="400.18985"
       cy="300.12415"
       fx="400.18985"
       fy="300.12415"
       r="203.68573"
       gradientTransform="matrix(0.99999999,0,0,0.96749964,-21.949485,-39.80829)"
       gradientUnits="userSpaceOnUse" />
    <radialGradient
       inkscape:collect="always"
       xlink:href="#linearGradient21616"
       id="radialGradient21620-0"
       cx="74.526268"
       cy="232.86833"
       fx="74.526268"
       fy="232.86833"
       r="315.18829"
       gradientTransform="matrix(0.34995603,0,3.737156e-8,0.57903882,159.14699,383.50586)"
       gradientUnits="userSpaceOnUse" />
    <radialGradient
       inkscape:collect="always"
       xlink:href="#linearGradient21616"
       id="radialGradient965"
       cx="74.526268"
       cy="232.86833"
       fx="74.526268"
       fy="232.86833"
       r="315.18829"
       gradientTransform="matrix(0.34995603,0,3.737156e-8,0.57903882,89.98971,125.38257)"
       gradientUnits="userSpaceOnUse" />
    <radialGradient
       inkscape:collect="always"
       xlink:href="#linearGradient21616"
       id="radialGradient973"
       cx="74.526268"
       cy="232.86833"
       fx="74.526268"
       fy="232.86833"
       r="315.18829"
       gradientTransform="matrix(0.34995603,0,3.737156e-8,0.57903882,89.98971,125.38257)"
       gradientUnits="userSpaceOnUse" />
    <inkscape:path-effect
       effect="fillet_chamfer"
       id="path-effect10399-7"
       is_visible="true"
       lpeversion="1"
       satellites_param="F,0,0,1,0,0,0,1 @ F,0,0,1,0,3.96875,0,1 @ F,0,0,1,0,3.96875,0,1 @ F,0,0,1,0,0,0,1 @ F,0,0,1,0,3.96875,0,1 @ F,0,0,1,0,3.96875,0,1 @ F,0,0,1,0,3.96875,0,1 @ F,0,0,1,0,3.96875,0,1 @ F,0,0,1,0,3.96875,0,1 @ F,0,0,1,0,3.96875,0,1 @ F,0,0,1,0,3.96875,0,1 @ F,0,0,1,0,3.96875,0,1 @ F,0,0,1,0,3.96875,0,1 @ F,0,0,1,0,3.96875,0,1 @ F,0,0,1,0,3.96875,0,1 @ F,0,0,1,0,3.96875,0,1 @ F,0,0,1,0,3.96875,0,1 @ F,0,0,1,0,3.96875,0,1 @ F,0,0,1,0,0,0,1 @ F,0,0,1,0,3.96875,0,1 @ F,0,0,1,0,3.96875,0,1 @ F,0,0,1,0,0,0,1 @ F,0,0,1,0,3.96875,0,1 @ F,0,0,1,0,3.96875,0,1"
       unit="px"
       method="auto"
       mode="F"
       radius="15"
       chamfer_steps="1"
       flexible="false"
       use_knot_distance="true"
       apply_no_radius="true"
       apply_with_radius="true"
       only_selected="false"
       hide_knots="false" />
    <inkscape:path-effect
       effect="fillet_chamfer"
       id="path-effect10500-2"
       is_visible="true"
       lpeversion="1"
       satellites_param="F,0,0,1,0,3.96875,0,1 @ F,0,0,1,0,3.96875,0,1 @ F,0,0,1,0,0,0,1 @ F,0,0,1,0,3.96875,0,1 @ F,0,0,1,0,3.96875,0,1 @ F,0,0,1,0,0,0,1 @ F,0,0,1,0,3.96875,0,1 @ F,0,0,1,0,3.96875,0,1 @ F,0,0,1,0,0,0,1 @ F,0,0,1,0,3.96875,0,1 @ F,0,0,1,0,3.96875,0,1 @ F,0,0,1,0,3.96875,0,1 @ F,0,0,1,0,3.96875,0,1 @ F,0,0,1,0,3.96875,0,1 @ F,0,0,1,0,3.96875,0,1 @ F,0,0,1,0,3.96875,0,1 @ F,0,0,1,0,3.96875,0,1 @ F,0,0,1,0,3.96875,0,1 @ F,0,0,1,0,3.96875,0,1 @ F,0,0,1,0,3.96875,0,1 @ F,0,0,1,0,3.96875,0,1 @ F,0,0,1,0,0,0,1"
       unit="px"
       method="auto"
       mode="F"
       radius="15"
       chamfer_steps="1"
       flexible="false"
       use_knot_distance="true"
       apply_no_radius="true"
       apply_with_radius="true"
       only_selected="false"
       hide_knots="false" />
    <inkscape:path-effect
       effect="fillet_chamfer"
       id="path-effect10658-4"
       is_visible="true"
       lpeversion="1"
       satellites_param="F,0,0,1,0,3.96875,0,1 @ F,0,0,1,0,3.96875,0,1 @ F,0,0,1,0,0,0,1 @ F,0,0,1,0,3.96875,0,1 @ F,0,0,1,0,3.96875,0,1 @ F,0,0,1,0,3.96875,0,1 @ F,0,0,1,0,3.96875,0,1 @ F,0,0,1,0,3.96875,0,1 @ F,0,0,1,0,3.96875,0,1 @ F,0,0,1,0,3.96875,0,1 @ F,0,0,1,0,3.96875,0,1 @ F,0,0,1,0,3.96875,0,1 @ F,0,0,1,0,3.96875,0,1 @ F,0,0,1,0,3.96875,0,1 @ F,0,0,1,0,3.96875,0,1 @ F,0,0,1,0,3.96875,0,1 @ F,0,0,1,0,3.96875,0,1 @ F,0,0,1,0,3.96875,0,1 @ F,0,0,1,0,3.96875,0,1 @ F,0,0,1,0,3.96875,0,1 @ F,0,0,1,0,3.96875,0,1 @ F,0,0,1,0,3.96875,0,1 @ F,0,0,1,0,3.96875,0,1"
       unit="px"
       method="auto"
       mode="F"
       radius="15"
       chamfer_steps="1"
       flexible="false"
       use_knot_distance="true"
       apply_no_radius="true"
       apply_with_radius="true"
       only_selected="false"
       hide_knots="false" />
    <inkscape:path-effect
       effect="fillet_chamfer"
       id="path-effect10759-3"
       is_visible="true"
       lpeversion="1"
       satellites_param="F,0,0,1,0,3.96875,0,1 @ F,0,0,1,0,3.96875,0,1 @ F,0,0,1,0,3.96875,0,1 @ F,0,0,1,0,3.96875,0,1 @ F,0,0,1,0,3.96875,0,1 @ F,0,0,1,0,3.96875,0,1 @ F,0,0,1,0,3.96875,0,1 @ F,0,0,1,0,3.96875,0,1 @ F,0,0,1,0,3.96875,0,1 @ F,0,0,1,0,3.96875,0,1 @ F,0,0,1,0,3.96875,0,1 @ F,0,0,1,0,3.96875,0,1 @ F,0,0,1,0,3.96875,0,1 @ F,0,0,1,0,3.96875,0,1 @ F,0,0,1,0,3.96875,0,1 @ F,0,0,1,0,3.96875,0,1 @ F,0,0,1,0,3.96875,0,1 @ F,0,0,1,0,3.96875,0,1 @ F,0,0,1,0,3.96875,0,1 @ F,0,0,1,0,3.96875,0,1 @ F,0,0,1,0,3.96875,0,1 @ F,0,0,1,0,3.96875,0,1 @ F,0,0,1,0,3.96875,0,1 @ F,0,0,1,0,3.96875,0,1 @ F,0,0,1,0,3.96875,0,1 @ F,0,0,1,0,3.96875,0,1 @ F,0,0,1,0,3.96875,0,1 @ F,0,0,1,0,3.96875,0,1 @ F,0,0,1,0,3.96875,0,1 @ F,0,0,1,0,0,0,1 @ F,0,0,1,0,3.96875,0,1 @ F,0,0,1,0,3.96875,0,1 @ F,0,0,1,0,3.96875,0,1 @ F,0,0,1,0,3.96875,0,1 @ F,0,0,1,0,3.96875,0,1 @ F,0,0,1,0,3.96875,0,1 @ F,0,0,1,0,0,0,1 @ F,0,0,1,0,3.96875,0,1"
       unit="px"
       method="auto"
       mode="F"
       radius="15"
       chamfer_steps="1"
       flexible="false"
       use_knot_distance="true"
       apply_no_radius="true"
       apply_with_radius="true"
       only_selected="false"
       hide_knots="false" />
    <radialGradient
       inkscape:collect="always"
       xlink:href="#linearGradient3578"
       id="radialGradient22005"
       cx="100.02587"
       cy="66.145851"
       fx="100.02587"
       fy="66.145851"
       r="66.145836"
       gradientUnits="userSpaceOnUse"
       gradientTransform="matrix(0.99999981,-0.99999996,1.0000001,0.99999992,-66.145836,100.02587)" />
    <radialGradient
       inkscape:collect="always"
       xlink:href="#linearGradient15974"
       id="radialGradient16646"
       cx="66.170181"
       cy="66.142998"
       fx="66.170181"
       fy="66.142998"
       r="79.59935"
       gradientTransform="matrix(1,0,0,1.0001972,0,-0.01304131)"
       gradientUnits="userSpaceOnUse" />
  </defs>
  <g
     inkscape:groupmode="layer"
     id="layer1"
     inkscape:label="Back"
     style="display:none"
     transform="translate(13.429171,13.472047)">
    <path
       id="rect22302"
       style="display:inline;fill:url(#radialGradient22005);stroke-width:4.651;stroke-dashoffset:1.8;stroke-opacity:0.129412;paint-order:markers fill stroke;stop-color:#000000"
       d="M 47.109199,1.6499074e-5 H 152.94253 A 13.229167,13.229167 45 0 1 166.1717,13.229183 V 119.06252 a 13.229167,13.229167 135 0 1 -13.22917,13.22917 H 47.109199 A 13.229167,13.229167 45 0 1 33.880032,119.06252 V 13.229183 A 13.229167,13.229167 135 0 1 47.109199,1.6499074e-5 Z"
       transform="translate(-33.880031,-1.6499074e-5)" />
  </g>
  <g
     inkscape:groupmode="layer"
     id="layer2"
     inkscape:label="Back Round"
     transform="translate(13.429171,13.472047)">
    <circle
       style="display:inline;fill:url(#radialGradient16646);fill-opacity:1;stroke:#000000;stroke-width:0.497417;stroke-miterlimit:10;stroke-dasharray:0.497417, 5.969;stroke-opacity:0.1;paint-order:markers fill stroke;stop-color:#000000"
       id="path16638"
       cx="66.145828"
       cy="66.145836"
       r="79.375" />
  </g>
  <g
     inkscape:groupmode="layer"
     id="layer5"
     inkscape:label="Saturn"
     style="display:inline"
     transform="translate(-20.450861,13.47203)">
    <path
       id="path1030-5"
       style="fill:url(#radialGradient4955-3);fill-opacity:1;stroke:none;stroke-width:0.85827;stroke-dashoffset:1.8;paint-order:markers fill stroke;stop-color:#000000"
       inkscape:transform-center-x="0.39030084"
       inkscape:transform-center-y="3.5938669"
       d="m 455.11719,66.523438 c -9.81022,-0.04989 -19.56489,1.49532 -29.14649,3.804687 -14.87909,3.586243 -32.87825,10.504885 -50.95898,32.283205 -17.69617,21.31514 -27.14026,46.37562 -50.19727,62.81445 l 0.0156,0.008 a 100.00147,99.99642 0 0 0 -32.55274,33.25977 c -6.58913,-1.95213 -10.58408,-7.21733 -16.26757,-13.65625 -9.91532,-11.23317 -12.68899,-29.10283 -13.07618,-38.84766 -0.52529,-13.22173 3.60719,-23.76885 8.68946,-35.55859 5.08227,-11.789783 17.80645,-26.952321 17.52734,-32.960938 -0.27916,-6.008655 -6.26364,-11.388827 -12.04492,-10.277344 -11.67437,2.244397 -20.34456,9.114091 -35.13867,26.398438 -13.80678,16.130794 -18.45539,35.497864 -19.98438,55.150394 -1.18721,15.25908 -0.17011,34.51575 14.95508,58.4414 14.80348,23.41682 35.71928,40.14396 44.22852,67.15235 l 0.004,-0.004 a 100.00147,99.99642 0 0 0 21.60547,41.19727 c -3.891,5.6897 -10.14461,7.86053 -18.04101,11.2832 -13.74739,5.95876 -31.60074,3.07474 -40.98829,0.43164 -12.73694,-3.58621 -21.48863,-10.77519 -31.13086,-19.25195 -9.64222,-8.47677 -20.13279,-25.26418 -25.93359,-26.85547 -5.80086,-1.5913 -12.76666,2.43946 -13.49609,8.28125 -1.47301,11.79655 2.3813,22.16497 14.24804,41.57617 11.07478,18.11573 28.05722,28.52171 46.27539,36.04883 14.14538,5.84439 32.77452,10.82543 60.20313,3.83398 26.8452,-6.84276 49.21717,-21.56573 77.5332,-21.3125 l -0.008,-0.0117 a 100.00147,99.99642 0 0 0 6.61523,0.24805 100.00147,99.99642 0 0 0 39.22461,-8.08594 c 4.22892,5.46384 4.35941,12.09042 5.17578,20.67188 1.41895,14.9159 -6.84119,31.00387 -12.25585,39.11523 -7.34657,11.00534 -16.88818,17.10738 -27.92969,23.65821 -11.04148,6.55082 -30.24874,11.34008 -33.55469,16.36523 -3.30599,5.02518 -1.62538,12.89363 3.70508,15.39258 10.76402,5.04627 21.81716,4.58635 43.94531,-0.70117 20.65138,-4.93467 35.79554,-17.87061 48.58399,-32.8711 9.92953,-11.64703 20.4253,-27.82562 22.25195,-56.07226 1.78775,-27.64593 -5.30155,-53.47043 3.68945,-80.32227 l -0.0156,0.004 a 100.00147,99.99642 0 0 0 7.18164,-37.15039 100.00147,99.99642 0 0 0 -0.4043,-8.89258 c 6.48113,-2.29845 12.8108,-0.38303 21.19727,1.48633 14.62435,3.25973 27.37098,16.08799 33.41211,23.74414 8.19651,10.38784 11.05285,21.34765 13.87109,33.87304 2.8182,12.5254 1.43771,32.27175 5.19531,36.96875 3.75765,4.69705 11.76132,5.53174 15.78516,1.23438 8.12553,-8.6778 11.10093,-19.33263 12.91015,-42.01172 1.68847,-21.16551 -5.93356,-39.56536 -16.24804,-56.36328 -8.00859,-13.04266 -20.15148,-28.02431 -46.45117,-38.49024 -25.62671,-10.19807 -52.25543,-11.47381 -74.94922,-28.11132 a 100.00147,99.99642 0 0 0 -41.9961,-20.9043 c -0.17197,-6.86056 3.59958,-12.28388 7.96289,-19.67188 7.61938,-12.90126 23.75603,-21.05987 32.9043,-24.43945 12.41231,-4.58532 23.72068,-3.91489 36.50391,-2.72461 12.78323,1.19029 31.13539,8.60662 36.76367,6.48438 5.62832,-2.12228 8.89438,-9.47796 6.05078,-14.632816 C 514.82041,87.143311 505.60767,81.01991 484.59766,72.291016 474.79375,68.217857 464.92737,66.573365 455.11719,66.523438 Z M 378.05078,200 a 49.999998,49.999998 0 0 1 50,50 49.999998,49.999998 0 0 1 -50,50 49.999998,49.999998 0 0 1 -50,-50 49.999998,49.999998 0 0 1 50,-50 z"
       transform="scale(0.26458333)" />
    <path
       id="path1030-5-5-6"
       style="fill:#ffffff;fill-opacity:1;stroke:none;stroke-width:0.227084;stroke-dashoffset:1.8;paint-order:markers fill stroke;stop-color:#000000"
       inkscape:transform-center-x="0.39030084"
       inkscape:transform-center-y="3.5938669"
       d="m 139.45304,229.26772 c -2.59562,-0.0132 -5.17655,0.39564 -7.71168,1.00666 -3.93676,0.94886 -8.69903,2.77942 -13.48289,8.5416 -4.68212,5.63963 -7.18086,12.27021 -13.28136,16.61965 l 0.004,0.002 a 26.458722,26.457386 0 0 0 -8.61291,8.79998 c -1.743368,-0.5165 -2.800368,-1.90958 -4.304127,-3.61321 -2.623431,-2.97211 -3.357288,-7.70013 -3.45974,-10.27845 -0.138977,-3.49825 0.954395,-6.28884 2.299087,-9.40821 1.344678,-3.11938 4.711292,-7.13113 4.637442,-8.72091 -0.0739,-1.58979 -1.657255,-3.0133 -3.186885,-2.71922 -3.088841,0.59383 -5.382827,2.41144 -9.297107,6.98459 -3.653052,4.26794 -4.882994,9.39214 -5.287534,14.59188 -0.314118,4.03729 -0.045,9.13229 3.956865,15.46262 3.91676,6.1957 9.450729,10.62142 11.702129,17.76739 l 0.0011,-10e-4 a 26.458722,26.457386 0 0 0 5.716447,10.90011 c -1.029499,1.5054 -2.684092,2.07978 -4.773351,2.98534 -3.63733,1.5766 -8.361026,0.81354 -10.844818,0.11422 -3.369979,-0.94885 -5.685536,-2.85094 -8.236706,-5.09376 -2.551168,-2.24281 -5.326796,-6.68447 -6.861596,-7.1055 -1.534811,-0.42103 -3.37784,0.64544 -3.57084,2.19108 -0.389732,3.12116 0.630054,5.86449 3.769793,11.00037 2.930203,4.79311 7.423468,7.54637 12.243697,9.53791 3.742632,1.54633 8.671594,2.86422 15.928745,1.01441 7.102789,-1.81049 13.022039,-5.70595 20.513989,-5.63893 l -0.002,-0.003 a 26.458722,26.457386 0 0 0 1.75027,0.0656 26.458722,26.457386 0 0 0 10.37818,-2.13939 c 1.1189,1.44563 1.15343,3.19892 1.36943,5.46941 0.37543,3.9465 -1.81007,8.20312 -3.2427,10.34926 -1.94378,2.91182 -4.46833,4.52631 -7.38973,6.25956 -2.92139,1.73324 -8.00331,3.00041 -8.87801,4.32996 -0.87471,1.32959 -0.43005,3.41144 0.9803,4.07263 2.84799,1.33517 5.77246,1.21346 11.6272,-0.18553 5.46401,-1.30561 9.4709,-4.72826 12.85452,-8.69714 2.62718,-3.0816 5.40419,-7.36219 5.88749,-14.83577 0.47301,-7.31467 -1.4027,-14.1474 0.97617,-21.25195 l -0.004,0.001 a 26.458722,26.457386 0 0 0 1.90014,-9.82937 26.458722,26.457386 0 0 0 -0.10697,-2.35283 c 1.7148,-0.60813 3.38952,-0.10134 5.60845,0.39326 3.86935,0.86247 7.2419,4.25661 8.84028,6.2823 2.16866,2.74845 2.9244,5.64823 3.67006,8.96224 0.74565,3.31401 0.3804,8.53858 1.37459,9.78132 0.99422,1.24275 3.11185,1.4636 4.17649,0.32661 2.14988,-2.29601 2.93713,-5.11511 3.41581,-11.11562 0.44675,-5.60004 -1.56992,-10.46833 -4.29896,-14.91278 -2.11894,-3.45087 -5.33174,-7.41477 -12.2902,-10.18388 -6.7804,-2.69823 -13.82592,-3.03577 -19.83032,-7.43778 a 26.458722,26.457386 0 0 0 -11.11146,-5.53093 c -0.0455,-1.81519 0.95239,-3.25011 2.10684,-5.20485 2.01597,-3.41346 6.28545,-5.57209 8.70593,-6.46627 3.28409,-1.2132 6.2761,-1.03582 9.65833,-0.72089 3.38223,0.31493 8.23791,2.27717 9.72705,1.71566 1.48916,-0.56152 2.35331,-2.50771 1.60094,-3.8716 -1.51926,-2.75416 -3.9568,-4.37431 -9.5157,-6.68383 -2.59395,-1.07769 -5.20443,-1.51279 -7.80004,-1.526 z m -20.39049,35.31568 a 13.229166,13.229166 0 0 1 13.22917,13.22916 13.229166,13.229166 0 0 1 -13.22917,13.22917 13.229166,13.229166 0 0 1 -13.22917,-13.22917 13.229166,13.229166 0 0 1 13.22917,-13.22916 z"
       transform="translate(-19.036635,-211.66667)" />
  </g>
</svg>
